<?xml version="1.0" encoding="UTF-8" standalone="no"?>
<svg
   width="32"
   height="32"
   fill="#000000"
   viewBox="0 0 256 256"
   version="1.1"
   id="svg1"
   sodipodi:docname="browsers.svg"
   xml:space="preserve"
   inkscape:version="1.4.2 (f4327f4, 2025-05-13)"
   xmlns:inkscape="http://www.inkscape.org/namespaces/inkscape"
   xmlns:sodipodi="http://sodipodi.sourceforge.net/DTD/sodipodi-0.dtd"
   xmlns="http://www.w3.org/2000/svg"
   xmlns:svg="http://www.w3.org/2000/svg"><defs
     id="defs1" /><sodipodi:namedview
     id="namedview1"
     pagecolor="#ffffff"
     bordercolor="#000000"
     borderopacity="0.25"
     inkscape:showpageshadow="2"
     inkscape:pageopacity="0.0"
     inkscape:pagecheckerboard="0"
     inkscape:deskcolor="#d1d1d1"
     showgrid="false"
     inkscape:zoom="42.757863"
     inkscape:cx="15.681326"
     inkscape:cy="15.470839"
     inkscape:window-width="3840"
     inkscape:window-height="2137"
     inkscape:window-x="1207"
     inkscape:window-y="-8"
     inkscape:window-maximized="1"
     inkscape:current-layer="svg1" /><path
     d="M 216,40 H 72 C 63.163444,40 56,47.163444 56,56 V 72 H 40 c -8.836556,0 -16,7.163444 -16,16 v 112 c 0,8.83656 7.163444,16 16,16 h 144 c 8.83656,0 16,-7.16344 16,-16 v -16 h 16 c 8.83656,0 16,-7.16344 16,-16 V 56 c 0,-8.836556 -7.16344,-16 -16,-16 z m -32,48 v 16 H 40 V 88 Z m 0,112 H 40 v -80 h 144 z m 32,-32 H 200 V 88 c 0,-8.836556 -7.16344,-16 -16,-16 H 72 V 56 h 144 z"
     id="path1"
     sodipodi:nodetypes="ssscsssssscssssccccccccccccsscccc" /><g
     style="fill:#000000"
     id="g2"
     transform="matrix(0.53045074,0,0,0.35262074,42.737866,113.02166)"><path
       d="m 236.14282,201.30285 c 0,3.81342 -3.63581,6.90482 -8.12081,6.90482 H 33.122444 c -4.485005,0 -8.120812,-3.0914 -8.120812,-6.90482 0,-3.81343 3.635807,-6.90483 8.120812,-6.90483 h 8.120815 v -55.23856 c 0,-3.81342 3.635813,-6.90481 8.120815,-6.90481 h 24.362445 c 4.485003,0 8.120816,3.09139 8.120816,6.90481 v 55.23856 h 16.24163 V 97.73055 c 0,-3.813427 3.635815,-6.90482 8.120815,-6.90482 h 32.48326 c 4.48501,0 8.12082,3.091393 8.12082,6.90482 v 96.66747 h 16.24163 V 56.301631 c 0,-3.813427 3.63581,-6.90482 8.12081,-6.90482 h 40.60408 c 4.485,0 8.12081,3.091393 8.12081,6.90482 V 194.39802 h 8.12082 c 4.485,0 8.12081,3.0914 8.12081,6.90483 z"
       id="path1-1"
       sodipodi:nodetypes="ssssscssssccssssccsssscss"
       style="stroke-width:0.936022" /></g></svg>
